<?xml version="1.0" standalone="no"?>
<!DOCTYPE svg PUBLIC "-//W3C//DTD SVG 20010904//EN"
 "http://www.w3.org/TR/2001/REC-SVG-20010904/DTD/svg10.dtd">
<svg version="1.0" xmlns="http://www.w3.org/2000/svg"
 width="512.000000pt" height="512.000000pt" viewBox="0 0 512.000000 512.000000"
 preserveAspectRatio="xMidYMid meet">
<metadata>
Created by potrace 1.14, written by Peter Selinger 2001-2017
</metadata>
<g transform="translate(0.000000,512.000000) scale(0.100000,-0.100000)"
fill="#000000" stroke="none">
<path d="M0 2560 l0 -2560 2560 0 2560 0 0 2560 0 2560 -2560 0 -2560 0 0
-2560z m1665 1206 c28 -12 67 -41 87 -64 64 -71 68 -99 68 -507 l0 -362 88 88
c70 69 105 96 163 123 100 48 195 62 311 47 212 -27 362 -132 448 -313 76
-160 90 -271 90 -725 0 -189 4 -312 11 -330 25 -66 88 -106 166 -106 66 0 123
35 153 93 19 38 20 57 20 663 l0 624 24 22 c32 30 118 39 180 18 65 -22 108
-59 142 -119 l29 -53 0 -550 c0 -496 -2 -556 -18 -615 -51 -187 -149 -287
-328 -336 -81 -22 -308 -25 -389 -5 -179 44 -293 150 -343 320 -17 57 -21 111
-27 416 -6 325 -8 355 -29 419 -31 93 -102 167 -185 191 -58 17 -181 22 -238
10 -94 -21 -171 -86 -215 -182 -46 -100 -52 -175 -53 -623 0 -254 -4 -429 -10
-452 -17 -61 -37 -68 -182 -68 -120 0 -128 1 -155 24 l-28 24 -3 1147 c-1 776
1 1152 8 1165 23 43 139 52 215 16z m1892 -71 c202 -101 129 -408 -97 -408
-233 0 -295 324 -80 417 54 23 118 20 177 -9z"/>
</g>
</svg>
